# xmcd
#
# Track frame offsets:
# 150
# 15112
# 33745
# 46767
# 60962
# 70315
# 84235
# 100305
# 113905
# 125520
# 141505
# 155410
#
# Disc length: 2254 seconds
#
# Revision: 0
# Processed by: cddbd v1.5PL3 Copyright (c) Steve Scherf et al.
# Submitted via: plextools 2.11
#
DISCID=9608cc0c
DTITLE=Various Artist - Bästa Bugg Bitarna
DYEAR=1900
DGENRE=Pop
TTITLE0=Lasse Stefanz - Världens lyckligaste par
TTITLE1=Berth Idoffs - Härliga Svealand
TTITLE2=Ingmar Nordströms - Hon är så fin
TTITLE3=Matz Bladhs - Det är dags att börja om
TTITLE4=Dannys - Dags att börja bugga
TTITLE5=Berth Idoffs - Kom igen, lilla vän
TTITLE6=Ingmar Nordströms - Gösta Gigolo
TTITLE7=Matz Bladhs - En för alla, alla för en
TTITLE8=Lasse Stefanz - Oh Julie
TTITLE9=Dannys - Sommardansen
TTITLE10=Berth Idoffs - Kärlek i Köpenhamn
TTITLE11=Matz Bladhs - Där näckrosen blommar
EXTD=
EXTT0=
EXTT1=
EXTT2=
EXTT3=
EXTT4=
EXTT5=
EXTT6=
EXTT7=
EXTT8=
EXTT9=
EXTT10=
EXTT11=
PLAYORDER=
